shantell--extrabold_bounce.ufo
<glyph name="quotedbl" format="2">
	<unicode hex="0022"/>
	<advance width="548"/>
	<outline>
		<contour>
			<point x="397" y="232.31384875" type="curve" smooth="yes"/>
			<point x="435" y="232.31384875"/>
			<point x="461" y="253.31384875"/>
			<point x="475" y="292.31384875" type="curve" smooth="yes"/>
			<point x="504" y="374.31384875"/>
			<point x="513" y="473.31384875"/>
			<point x="499" y="539.31384875" type="curve" smooth="yes"/>
			<point x="491" y="574.31384875"/>
			<point x="454" y="600.31384875"/>
			<point x="414" y="600.31384875" type="curve" smooth="yes"/>
			<point x="364" y="600.31384875"/>
			<point x="329" y="554.31384875"/>
			<point x="331" y="506.31384875" type="curve" smooth="yes"/>
			<point x="333.0496245626" y="453.0236101225"/>
			<point x="323" y="390.31384875"/>
			<point x="312" y="330.31384875" type="curve" smooth="yes"/>
			<point x="302" y="274.31384875"/>
			<point x="341" y="232.31384875"/>
		</contour>
		<contour>
			<point x="130" y="232.31384875" type="curve" smooth="yes"/>
			<point x="168" y="232.31384875"/>
			<point x="194" y="253.31384875"/>
			<point x="208" y="292.31384875" type="curve" smooth="yes"/>
			<point x="237" y="374.31384875"/>
			<point x="246" y="473.31384875"/>
			<point x="232" y="539.31384875" type="curve" smooth="yes"/>
			<point x="224" y="574.31384875"/>
			<point x="187" y="600.31384875"/>
			<point x="147" y="600.31384875" type="curve" smooth="yes"/>
			<point x="97" y="600.31384875"/>
			<point x="58" y="554.31384875"/>
			<point x="64" y="506.31384875" type="curve" smooth="yes"/>
			<point x="70" y="454.31384875"/>
			<point x="61" y="390.31384875"/>
			<point x="46" y="346.31384875" type="curve" smooth="yes"/>
			<point x="31" y="301.31384875"/>
			<point x="73" y="232.31384875"/>
		</contour>
	</outline>
</glyph>
<glyph name="quotesingle" format="2">
	<unicode hex="0027"/>
	<advance width="281"/>
	<outline>
		<contour>
			<point x="130" y="402.0459579657" type="curve" smooth="yes"/>
			<point x="168" y="402.0459579657"/>
			<point x="194" y="423.0459579657"/>
			<point x="208" y="462.0459579657" type="curve" smooth="yes"/>
			<point x="237" y="544.0459579657"/>
			<point x="246" y="643.0459579657"/>
			<point x="232" y="709.0459579657" type="curve" smooth="yes"/>
			<point x="223" y="744.0459579657"/>
			<point x="187" y="770.0459579657"/>
			<point x="147" y="770.0459579657" type="curve" smooth="yes"/>
			<point x="97" y="770.0459579657"/>
			<point x="56" y="724.0459579657"/>
			<point x="64" y="676.0459579657" type="curve" smooth="yes"/>
			<point x="73" y="625.0459579657"/>
			<point x="61" y="562.0459579657"/>
			<point x="46" y="516.0459579657" type="curve" smooth="yes"/>
			<point x="32" y="470.0459579657"/>
			<point x="73" y="402.0459579657"/>
		</contour>
	</outline>
</glyph>
<glyph name="asterisk" format="2">
	<unicode hex="002A"/>
	<advance width="520"/>
	<image fileName="asterisk000000000000001.png" xScale="0.2628236287" yScale="0.2628236287" xOffset="-8.6573841831" yOffset="213.6021023181" color="0,0,0,0.2098"/>
	<outline>
		<contour>
			<point x="291" y="626.2651694207"/>
			<point x="334" y="568.2651694207"/>
			<point x="334" y="430.2651694207" type="curve" smooth="yes"/>
			<point x="334" y="359.2651694207"/>
			<point x="330" y="245.2651694207"/>
			<point x="346" y="158.2651694207" type="curve" smooth="yes"/>
			<point x="354" y="114.2651694207"/>
			<point x="336" y="86.2651694207"/>
			<point x="288" y="86.2651694207" type="curve" smooth="yes"/>
			<point x="253" y="86.2651694207"/>
			<point x="234" y="106.2651694207"/>
			<point x="228" y="134.2651694207" type="curve" smooth="yes"/>
			<point x="209" y="227.2651694207"/>
			<point x="214" y="353.2651694207"/>
			<point x="214" y="430.2651694207" type="curve" smooth="yes"/>
			<point x="214" y="537.2651694207"/>
			<point x="183" y="540.2651694207"/>
			<point x="183" y="581.2651694207" type="curve" smooth="yes"/>
			<point x="183" y="609.2651694207"/>
			<point x="198" y="626.2651694207"/>
			<point x="233" y="626.2651694207" type="curve" smooth="yes"/>
		</contour>
		<contour>
			<point x="455" y="456.2651694207" type="curve" smooth="yes"/>
			<point x="399" y="379.2651694207"/>
			<point x="249" y="300.2651694207"/>
			<point x="185" y="201.2651694207" type="curve" smooth="yes"/>
			<point x="172" y="181.2651694207"/>
			<point x="158" y="174.2651694207"/>
			<point x="137" y="174.2651694207" type="curve" smooth="yes"/>
			<point x="105" y="174.2651694207"/>
			<point x="75" y="203.2651694207"/>
			<point x="75" y="235.2651694207" type="curve" smooth="yes"/>
			<point x="75" y="246.2651694207"/>
			<point x="76" y="259.2651694207"/>
			<point x="95" y="284.2651694207" type="curve" smooth="yes"/>
			<point x="156" y="365.2651694207"/>
			<point x="319" y="464.2651694207"/>
			<point x="365" y="531.2651694207" type="curve" smooth="yes"/>
			<point x="381" y="555.2651694207"/>
			<point x="397" y="568.2651694207"/>
			<point x="421" y="568.2651694207" type="curve" smooth="yes"/>
			<point x="457" y="568.2651694207"/>
			<point x="473" y="542.2651694207"/>
			<point x="473" y="511.2651694207" type="curve" smooth="yes"/>
			<point x="473" y="488.2651694207"/>
			<point x="466" y="472.2651694207"/>
		</contour>
		<contour>
			<point x="129" y="499.2651694207" type="curve" smooth="yes"/>
			<point x="201" y="460.2651694207"/>
			<point x="346" y="412.2651694207"/>
			<point x="465" y="348.2651694207" type="curve" smooth="yes"/>
			<point x="485" y="338.2651694207"/>
			<point x="497" y="319.2651694207"/>
			<point x="497" y="294.2651694207" type="curve" smooth="yes"/>
			<point x="497" y="262.2651694207"/>
			<point x="480" y="233.2651694207"/>
			<point x="444" y="233.2651694207" type="curve" smooth="yes"/>
			<point x="425" y="233.2651694207"/>
			<point x="417" y="237.2651694207"/>
			<point x="378" y="258.2651694207" type="curve" smooth="yes"/>
			<point x="288" y="306.2651694207"/>
			<point x="141" y="356.2651694207"/>
			<point x="71" y="396.2651694207" type="curve" smooth="yes"/>
			<point x="32" y="419.2651694207"/>
			<point x="23" y="451.2651694207"/>
			<point x="23" y="472.2651694207" type="curve" smooth="yes"/>
			<point x="23" y="504.2651694207"/>
			<point x="42" y="520.2651694207"/>
			<point x="70" y="520.2651694207" type="curve" smooth="yes"/>
			<point x="90" y="520.2651694207"/>
			<point x="100" y="514.2651694207"/>
		</contour>
	</outline>
</glyph>
<glyph name="comma" format="2">
	<unicode hex="002C"/>
	<advance width="320"/>
	<outline>
		<contour>
			<point x="270" y="324.5721224555"/>
			<point x="223" y="367.4561824954"/>
			<point x="149" y="367.4561824954" type="curve" smooth="yes"/>
			<point x="95" y="367.4561824954"/>
			<point x="70" y="331.4561824954"/>
			<point x="70" y="276.4561824954" type="curve" smooth="yes"/>
			<point x="70" y="249.4561824954"/>
			<point x="80" y="176.4561824954"/>
			<point x="52" y="99.4561824954" type="curve" smooth="yes"/>
			<point x="41.2456901304" y="70.7780228431"/>
			<point x="37" y="51.897358966"/>
			<point x="37" y="33.4561824954" type="curve" smooth="yes"/>
			<point x="37" y="1.1645158287"/>
			<point x="55" y="-16.5438175046"/>
			<point x="93" y="-16.5438175046" type="curve" smooth="yes"/>
			<point x="138" y="-16.5438175046"/>
			<point x="185.7902388555" y="18.7147110431"/>
			<point x="212" y="60.4561824954" type="curve" smooth="yes"/>
			<point x="246.5376602016" y="116.3259269391"/>
			<point x="270" y="192.4258794651"/>
			<point x="270" y="261.4561824954" type="curve" smooth="yes"/>
		</contour>
	</outline>
</glyph>
<glyph name="hyphen" format="2">
	<unicode hex="002D"/>
	<advance width="531"/>
	<outline>
		<contour>
			<point x="206" y="65.3714159859" type="curve" smooth="yes"/>
			<point x="238.7592592593" y="65.3714159859"/>
			<point x="291.9259259259" y="75.3714159859"/>
			<point x="438" y="75.3714159859" type="curve" smooth="yes"/>
			<point x="469" y="75.3714159859"/>
			<point x="487" y="96.3714159859"/>
			<point x="487" y="129.3714159859" type="curve" smooth="yes"/>
			<point x="487" y="170.3714159859"/>
			<point x="444" y="238.3714159859"/>
			<point x="325" y="238.3714159859" type="curve" smooth="yes"/>
			<point x="241.9642857143" y="238.3714159859"/>
			<point x="160.9762270093" y="238.2102550657"/>
			<point x="77" y="212.3714159859" type="curve" smooth="yes"/>
			<point x="49" y="204.3714159859"/>
			<point x="43" y="190.3714159859"/>
			<point x="43" y="168.3714159859" type="curve" smooth="yes"/>
			<point x="43" y="118.3714159859"/>
			<point x="101" y="65.3714159859"/>
		</contour>
	</outline>
</glyph>
<glyph name="seven" format="2">
	<unicode hex="0037"/>
	<advance width="700"/>
	<outline>
		<contour>
			<point x="172" y="416.0690408984" type="curve" smooth="yes"/>
			<point x="285.9679144385" y="416.0690408984"/>
			<point x="386.5882352941" y="444.0690408984"/>
			<point x="556" y="444.0690408984" type="curve" smooth="yes"/>
			<point x="635" y="444.0690408984"/>
			<point x="682" y="397.0690408984"/>
			<point x="682" y="339.0690408984" type="curve" smooth="yes"/>
			<point x="682" y="303.0690408984"/>
			<point x="657" y="279.0690408984"/>
			<point x="611" y="279.0690408984" type="curve" smooth="yes"/>
			<point x="387.4245524297" y="279.0690408984"/>
			<point x="307.4296675192" y="251.0690408984"/>
			<point x="210" y="251.0690408984" type="curve" smooth="yes"/>
			<point x="153" y="251.0690408984"/>
			<point x="111" y="298.0690408984"/>
			<point x="111" y="348.0690408984" type="curve" smooth="yes"/>
			<point x="111" y="392.0690408984"/>
			<point x="130" y="416.0690408984"/>
		</contour>
		<contour>
			<point x="52" y="695.0690408984" type="curve" smooth="yes"/>
			<point x="151" y="732.0690408984"/>
			<point x="295.1998732257" y="760.0690408984"/>
			<point x="376" y="760.0690408984" type="curve" smooth="yes"/>
			<point x="553.0196078431" y="760.0690408984"/>
			<point x="620" y="685.0690408984"/>
			<point x="620" y="575.0690408984" type="curve" smooth="yes"/>
			<point x="620" y="415.0690408984"/>
			<point x="440" y="285.0690408984"/>
			<point x="440" y="120.0690408984" type="curve" smooth="yes"/>
			<point x="440" y="59.0690408984"/>
			<point x="421" y="41.0690408984"/>
			<point x="373" y="41.0690408984" type="curve" smooth="yes"/>
			<point x="315" y="41.0690408984"/>
			<point x="267" y="70.0690408984"/>
			<point x="267" y="133.0690408984" type="curve" smooth="yes"/>
			<point x="267" y="290.0690408984"/>
			<point x="443" y="486.0690408984"/>
			<point x="443" y="556.0690408984" type="curve" smooth="yes"/>
			<point x="443" y="585.0690408984"/>
			<point x="427" y="596.0690408984"/>
			<point x="383" y="596.0690408984" type="curve" smooth="yes"/>
			<point x="224" y="596.0690408984"/>
			<point x="156.309352518" y="544.0690408984"/>
			<point x="109" y="544.0690408984" type="curve" smooth="yes"/>
			<point x="67.4772727273" y="544.0690408984"/>
			<point x="22" y="597.0690408984"/>
			<point x="22" y="643.0690408984" type="curve" smooth="yes"/>
			<point x="22" y="665.0690408984"/>
			<point x="32" y="688.0690408984"/>
		</contour>
	</outline>
</glyph>
<glyph name="semicolon" format="2">
	<unicode hex="003B"/>
	<advance width="320"/>
	<outline>
		<contour>
			<point x="153" y="183.8306791072" type="curve" smooth="yes"/>
			<point x="236.5811965812" y="183.8306791072"/>
			<point x="280" y="227.1457476004"/>
			<point x="280" y="276.8306791072" type="curve" smooth="yes"/>
			<point x="280" y="327.6640124405"/>
			<point x="250.3103448276" y="376.8306791072"/>
			<point x="175" y="376.8306791072" type="curve" smooth="yes"/>
			<point x="100.8723404255" y="376.8306791072"/>
			<point x="41" y="339.2890124405"/>
			<point x="41" y="270.8306791072" type="curve" smooth="yes"/>
			<point x="41" y="212.531710035"/>
			<point x="78.6393442623" y="183.8306791072"/>
		</contour>
		<component base="comma" yOffset="-151.1693208928"/>
	</outline>
</glyph>
<glyph name="at" format="2">
	<unicode hex="0040"/>
	<advance width="924"/>
	<outline>
		<contour>
			<point x="534" y="207.070830731" type="curve" smooth="yes"/>
			<point x="493" y="194.070830731"/>
			<point x="454" y="156.070830731"/>
			<point x="454" y="122.070830731" type="curve" smooth="yes"/>
			<point x="454" y="104.070830731"/>
			<point x="461" y="88.070830731"/>
			<point x="475" y="76.070830731" type="curve"/>
			<point x="353" y="175.070830731" type="line"/>
			<point x="376" y="161.070830731"/>
			<point x="393" y="158.070830731"/>
			<point x="411" y="158.070830731" type="curve" smooth="yes"/>
			<point x="427" y="158.070830731"/>
			<point x="435" y="171.070830731"/>
			<point x="459" y="199.070830731" type="curve" smooth="yes"/>
			<point x="489" y="236.070830731"/>
			<point x="523" y="261.070830731"/>
			<point x="575" y="261.070830731" type="curve" smooth="yes"/>
			<point x="610" y="261.070830731"/>
			<point x="640.9634442539" y="247.8034710054"/>
			<point x="663" y="216.070830731" type="curve" smooth="yes"/>
			<point x="694.182820345" y="169.9202566204"/>
			<point x="704.0540540541" y="170.070830731"/>
			<point x="712" y="170.070830731" type="curve"/>
			<point x="717" y="170.070830731"/>
			<point x="720" y="178.070830731"/>
			<point x="720" y="184.070830731" type="curve" smooth="yes"/>
			<point x="720" y="289.070830731"/>
			<point x="635" y="459.070830731"/>
			<point x="515" y="459.070830731" type="curve" smooth="yes"/>
			<point x="354" y="459.070830731"/>
			<point x="204" y="313.070830731"/>
			<point x="204" y="164.070830731" type="curve" smooth="yes"/>
			<point x="204" y="-4.929169269"/>
			<point x="358" y="-88.929169269"/>
			<point x="515" y="-88.929169269" type="curve" smooth="yes"/>
			<point x="653" y="-88.929169269"/>
			<point x="709" y="-50.929169269"/>
			<point x="749" y="-50.929169269" type="curve" smooth="yes"/>
			<point x="802" y="-50.929169269"/>
			<point x="833" y="-89.929169269"/>
			<point x="833" y="-135.929169269" type="curve" smooth="yes"/>
			<point x="833" y="-169.929169269"/>
			<point x="813" y="-201.929169269"/>
			<point x="775" y="-216.929169269" type="curve" smooth="yes"/>
			<point x="705" y="-243.929169269"/>
			<point x="636" y="-257.929169269"/>
			<point x="515" y="-257.929169269" type="curve" smooth="yes"/>
			<point x="254" y="-257.929169269"/>
			<point x="35" y="-96.929169269"/>
			<point x="35" y="164.070830731" type="curve" smooth="yes"/>
			<point x="35" y="393.070830731"/>
			<point x="262" y="629.070830731"/>
			<point x="515" y="629.070830731" type="curve" smooth="yes"/>
			<point x="761" y="629.070830731"/>
			<point x="889" y="341.070830731"/>
			<point x="889" y="184.070830731" type="curve" smooth="yes"/>
			<point x="889" y="63.070830731"/>
			<point x="817" y="1.070830731"/>
			<point x="733" y="1.070830731" type="curve" smooth="yes"/>
			<point x="682.7037037037" y="1.070830731"/>
			<point x="615.3027107596" y="11.0669582173"/>
			<point x="539" y="120.070830731" type="curve"/>
			<point x="592" y="117.070830731" type="line"/>
			<point x="559" y="48.070830731"/>
			<point x="511" y="8.070830731"/>
			<point x="433" y="8.070830731" type="curve" smooth="yes"/>
			<point x="352" y="8.070830731"/>
			<point x="300" y="48.070830731"/>
			<point x="300" y="144.070830731" type="curve" smooth="yes"/>
			<point x="300" y="259.070830731"/>
			<point x="427" y="372.070830731"/>
			<point x="504" y="372.070830731" type="curve" smooth="yes"/>
			<point x="560" y="372.070830731"/>
			<point x="589" y="335.070830731"/>
			<point x="589" y="288.070830731" type="curve" smooth="yes"/>
			<point x="589" y="253.070830731"/>
			<point x="568" y="219.070830731"/>
		</contour>
	</outline>
</glyph>
<glyph name="B" format="2">
	<unicode hex="0042"/>
	<advance width="633"/>
	<outline>
		<contour>
			<point x="254" y="45.8569036182"/>
			<point x="228" y="88.8569036182"/>
			<point x="228" y="231.8569036182" type="curve" smooth="yes"/>
			<point x="228" y="309.8569036182"/>
			<point x="230" y="340.8569036182"/>
			<point x="237" y="419.8569036182" type="curve" smooth="yes"/>
			<point x="242" y="464.8569036182"/>
			<point x="204" y="513.8569036182"/>
			<point x="151" y="513.8569036182" type="curve" smooth="yes"/>
			<point x="127" y="513.8569036182"/>
			<point x="94" y="497.8569036182"/>
			<point x="85" y="463.8569036182" type="curve" smooth="yes"/>
			<point x="61" y="368.8569036182"/>
			<point x="55" y="322.8569036182"/>
			<point x="55" y="215.8569036182" type="curve" smooth="yes"/>
			<point x="55" y="36.8569036182"/>
			<point x="130" y="-125.1430963818"/>
			<point x="257" y="-125.1430963818" type="curve" smooth="yes"/>
			<point x="383.2517482517" y="-125.1430963818"/>
			<point x="563" y="-62.1430963818"/>
			<point x="563" y="106.8569036182" type="curve" smooth="yes"/>
			<point x="563" y="173.8569036182"/>
			<point x="515" y="246.8569036182"/>
			<point x="372" y="262.8569036182" type="curve"/>
			<point x="381" y="207.8569036182" type="line"/>
			<point x="555" y="270.8569036182"/>
			<point x="589" y="347.8569036182"/>
			<point x="589" y="409.8569036182" type="curve" smooth="yes"/>
			<point x="589" y="552.8569036182"/>
			<point x="425.3165266106" y="596.8569036182"/>
			<point x="212" y="596.8569036182" type="curve" smooth="yes"/>
			<point x="75.1213872832" y="596.8569036182"/>
			<point x="27" y="552.8569036182"/>
			<point x="27" y="473.8569036182" type="curve" smooth="yes"/>
			<point x="27" y="434.8569036182"/>
			<point x="49" y="408.8569036182"/>
			<point x="91" y="408.8569036182" type="curve" smooth="yes"/>
			<point x="111" y="408.8569036182"/>
			<point x="160" y="412.8569036182"/>
			<point x="206" y="412.8569036182" type="curve" smooth="yes"/>
			<point x="395.6885245902" y="412.8569036182"/>
			<point x="409" y="406.8569036182"/>
			<point x="409" y="385.8569036182" type="curve" smooth="yes"/>
			<point x="409" y="349.8569036182"/>
			<point x="211.9512576" y="292.9858343611"/>
			<point x="159" y="277.8569036182" type="curve" smooth="yes"/>
			<point x="138" y="271.8569036182"/>
			<point x="120" y="243.8569036182"/>
			<point x="120" y="220.8569036182" type="curve" smooth="yes"/>
			<point x="120" y="171.8569036182"/>
			<point x="146" y="136.8569036182"/>
			<point x="183" y="137.8569036182" type="curve" smooth="yes"/>
			<point x="325.571956748" y="141.1725305193"/>
			<point x="393" y="128.8569036182"/>
			<point x="393" y="88.8569036182" type="curve" smooth="yes"/>
			<point x="393" y="77.8569036182"/>
			<point x="303.9813084112" y="45.8569036182"/>
			<point x="266" y="45.8569036182" type="curve" smooth="yes"/>
		</contour>
	</outline>
</glyph>
<glyph name="I" format="2">
	<unicode hex="0049"/>
	<advance width="610"/>
	<outline>
		<contour>
			<point x="196" y="-203.5809613082" type="curve" smooth="yes"/>
			<point x="237" y="-203.5809613082"/>
			<point x="330" y="-192.5809613082"/>
			<point x="443" y="-192.5809613082" type="curve" smooth="yes"/>
			<point x="549" y="-192.5809613082"/>
			<point x="594" y="-148.5809613082"/>
			<point x="594" y="-94.5809613082" type="curve" smooth="yes"/>
			<point x="594" y="-57.5809613082"/>
			<point x="571" y="-28.5809613082"/>
			<point x="468" y="-28.5809613082" type="curve" smooth="yes"/>
			<point x="315" y="-28.5809613082"/>
			<point x="279" y="-9.5809613082"/>
			<point x="88" y="-41.5809613082" type="curve" smooth="yes"/>
			<point x="52" y="-47.5809613082"/>
			<point x="33" y="-74.5809613082"/>
			<point x="33" y="-104.5809613082" type="curve" smooth="yes"/>
			<point x="33" y="-161.5809613082"/>
			<point x="80" y="-203.5809613082"/>
		</contour>
		<contour>
			<point x="135" y="320.4190386918" type="curve" smooth="yes"/>
			<point x="192" y="320.4190386918"/>
			<point x="272" y="338.4190386918"/>
			<point x="442" y="338.4190386918" type="curve" smooth="yes"/>
			<point x="514" y="338.4190386918"/>
			<point x="579" y="380.4190386918"/>
			<point x="579" y="442.4190386918" type="curve" smooth="yes"/>
			<point x="579" y="503.4190386918"/>
			<point x="551" y="517.4190386918"/>
			<point x="459" y="517.4190386918" type="curve" smooth="yes"/>
			<point x="373" y="517.4190386918"/>
			<point x="252" y="508.4190386918"/>
			<point x="117" y="489.4190386918" type="curve" smooth="yes"/>
			<point x="66" y="482.4190386918"/>
			<point x="29" y="454.4190386918"/>
			<point x="29" y="409.4190386918" type="curve" smooth="yes"/>
			<point x="29" y="361.4190386918"/>
			<point x="56" y="320.4190386918"/>
		</contour>
		<contour>
			<point x="320" y="-72.5809613082" type="curve" smooth="yes"/>
			<point x="361" y="-72.5809613082"/>
			<point x="384" y="-49.5809613082"/>
			<point x="384" y="-3.5809613082" type="curve" smooth="yes"/>
			<point x="384" y="134.4190386918"/>
			<point x="401" y="244.4190386918"/>
			<point x="401" y="302.4190386918" type="curve" smooth="yes"/>
			<point x="401" y="352.4190386918"/>
			<point x="352" y="392.4190386918"/>
			<point x="293" y="392.4190386918" type="curve" smooth="yes"/>
			<point x="242" y="392.4190386918"/>
			<point x="226" y="365.4190386918"/>
			<point x="226" y="311.4190386918" type="curve" smooth="yes"/>
			<point x="226" y="229.4190386918"/>
			<point x="211" y="117.4190386918"/>
			<point x="211" y="4.4190386918" type="curve" smooth="yes"/>
			<point x="211" y="-42.5809613082"/>
			<point x="254" y="-72.5809613082"/>
		</contour>
	</outline>
</glyph>
<glyph name="O" format="2">
	<unicode hex="004F"/>
	<advance width="766"/>
	<outline>
		<contour>
			<point x="340" y="610.3818848644" type="curve" smooth="yes"/>
			<point x="246" y="536.3818848644"/>
			<point x="220" y="492.3818848644"/>
			<point x="220" y="419.3818848644" type="curve" smooth="yes"/>
			<point x="220" y="333.3818848644"/>
			<point x="284" y="293.3818848644"/>
			<point x="367" y="293.3818848644" type="curve" smooth="yes"/>
			<point x="463" y="293.3818848644"/>
			<point x="546" y="353.3818848644"/>
			<point x="546" y="429.3818848644" type="curve" smooth="yes"/>
			<point x="546" y="530.3818848644"/>
			<point x="465" y="667.3818848644"/>
			<point x="381" y="667.3818848644" type="curve" smooth="yes"/>
			<point x="372" y="667.3818848644"/>
			<point x="369" y="657.3818848644"/>
			<point x="369" y="643.3818848644" type="curve" smooth="yes"/>
			<point x="369" y="613.3818848644"/>
			<point x="352" y="598.3818848644"/>
			<point x="334" y="598.3818848644" type="curve" smooth="yes"/>
			<point x="280" y="598.3818848644"/>
			<point x="225" y="644.3818848644"/>
			<point x="225" y="735.3818848644" type="curve" smooth="yes"/>
			<point x="225" y="790.3818848644"/>
			<point x="279" y="840.3818848644"/>
			<point x="374" y="840.3818848644" type="curve" smooth="yes"/>
			<point x="564" y="840.3818848644"/>
			<point x="716" y="622.3818848644"/>
			<point x="716" y="429.3818848644" type="curve" smooth="yes"/>
			<point x="716" y="260.3818848644"/>
			<point x="550" y="119.3818848644"/>
			<point x="367" y="119.3818848644" type="curve" smooth="yes"/>
			<point x="195" y="119.3818848644"/>
			<point x="50" y="239.3818848644"/>
			<point x="50" y="419.3818848644" type="curve" smooth="yes"/>
			<point x="50" y="617.3818848644"/>
			<point x="235" y="747.3818848644"/>
			<point x="277" y="747.3818848644" type="curve" smooth="yes"/>
			<point x="295" y="747.3818848644"/>
			<point x="328" y="736.3818848644"/>
			<point x="342" y="718.3818848644" type="curve" smooth="yes"/>
			<point x="365" y="688.3818848644"/>
			<point x="370" y="634.3818848644"/>
		</contour>
	</outline>
</glyph>
<glyph name="U" format="2">
	<unicode hex="0055"/>
	<advance width="679"/>
	<outline>
		<contour>
			<point x="360" y="59.470896259" type="curve" smooth="yes"/>
			<point x="552" y="59.470896259"/>
			<point x="638" y="186.470896259"/>
			<point x="638" y="370.470896259" type="curve" smooth="yes"/>
			<point x="638" y="454.470896259"/>
			<point x="629" y="520.470896259"/>
			<point x="629" y="592.470896259" type="curve" smooth="yes"/>
			<point x="629" y="632.470896259"/>
			<point x="638" y="697.470896259"/>
			<point x="638" y="710.470896259" type="curve" smooth="yes"/>
			<point x="638" y="751.470896259"/>
			<point x="597" y="784.470896259"/>
			<point x="557" y="784.470896259" type="curve" smooth="yes"/>
			<point x="495" y="784.470896259"/>
			<point x="451" y="747.470896259"/>
			<point x="451" y="687.470896259" type="curve" smooth="yes"/>
			<point x="451" y="570.470896259"/>
			<point x="459" y="501.470896259"/>
			<point x="459" y="377.470896259" type="curve" smooth="yes"/>
			<point x="459" y="270.470896259"/>
			<point x="423" y="237.470896259"/>
			<point x="353" y="237.470896259" type="curve" smooth="yes"/>
			<point x="274" y="237.470896259"/>
			<point x="239" y="266.470896259"/>
			<point x="239" y="404.470896259" type="curve" smooth="yes"/>
			<point x="239" y="467.470896259"/>
			<point x="248" y="555.470896259"/>
			<point x="248" y="616.470896259" type="curve" smooth="yes"/>
			<point x="248" y="752.470896259"/>
			<point x="196" y="788.470896259"/>
			<point x="128" y="788.470896259" type="curve" smooth="yes"/>
			<point x="95" y="788.470896259"/>
			<point x="41" y="778.470896259"/>
			<point x="41" y="742.470896259" type="curve" smooth="yes"/>
			<point x="41" y="685.470896259"/>
			<point x="60" y="672.470896259"/>
			<point x="60" y="561.470896259" type="curve" smooth="yes"/>
			<point x="60" y="524.470896259"/>
			<point x="55" y="469.470896259"/>
			<point x="55" y="414.470896259" type="curve" smooth="yes"/>
			<point x="55" y="201.470896259"/>
			<point x="143" y="59.470896259"/>
		</contour>
	</outline>
</glyph>
<glyph name="V" format="2">
	<unicode hex="0056"/>
	<advance width="689"/>
	<outline>
		<contour>
			<point x="352" y="163.2909894273" type="curve" smooth="yes"/>
			<point x="409" y="163.2909894273"/>
			<point x="429" y="192.2909894273"/>
			<point x="445" y="245.2909894273" type="curve" smooth="yes"/>
			<point x="502" y="419.2909894273"/>
			<point x="568" y="533.2909894273"/>
			<point x="647" y="662.2909894273" type="curve" smooth="yes"/>
			<point x="682" y="720.2909894273"/>
			<point x="687" y="730.2909894273"/>
			<point x="687" y="781.2909894273" type="curve" smooth="yes"/>
			<point x="687" y="841.2909894273"/>
			<point x="655" y="890.2909894273"/>
			<point x="602" y="890.2909894273" type="curve" smooth="yes"/>
			<point x="571" y="890.2909894273"/>
			<point x="546" y="884.2909894273"/>
			<point x="497" y="808.2909894273" type="curve" smooth="yes"/>
			<point x="414" y="679.2909894273"/>
			<point x="346" y="541.2909894273"/>
			<point x="302" y="373.2909894273" type="curve"/>
			<point x="348" y="432.2909894273" type="line"/>
			<point x="292" y="512.2909894273"/>
			<point x="261" y="738.2909894273"/>
			<point x="169" y="844.2909894273" type="curve" smooth="yes"/>
			<point x="139" y="878.2909894273"/>
			<point x="113" y="887.2909894273"/>
			<point x="82" y="887.2909894273" type="curve" smooth="yes"/>
			<point x="23" y="887.2909894273"/>
			<point x="-3" y="846.2909894273"/>
			<point x="-3" y="804.2909894273" type="curve" smooth="yes"/>
			<point x="-3" y="761.2909894273"/>
			<point x="22" y="729.2909894273"/>
			<point x="43" y="699.2909894273" type="curve" smooth="yes"/>
			<point x="117" y="592.2909894273"/>
			<point x="100" y="490.2909894273"/>
			<point x="224" y="264.2909894273" type="curve" smooth="yes"/>
			<point x="264" y="190.2909894273"/>
			<point x="292" y="163.2909894273"/>
		</contour>
	</outline>
</glyph>
<glyph name="X" format="2">
	<unicode hex="0058"/>
	<advance width="696"/>
	<outline>
		<contour>
			<point x="251" y="703.7568909594" type="curve" smooth="yes"/>
			<point x="344" y="447.7568909594"/>
			<point x="523" y="385.7568909594"/>
			<point x="620" y="260.7568909594" type="curve" smooth="yes"/>
			<point x="705" y="152.7568909594"/>
			<point x="646" y="55.7568909594"/>
			<point x="560" y="55.7568909594" type="curve" smooth="yes"/>
			<point x="519" y="55.7568909594"/>
			<point x="480" y="78.7568909594"/>
			<point x="450" y="128.7568909594" type="curve" smooth="yes"/>
			<point x="380" y="244.7568909594"/>
			<point x="94" y="465.7568909594"/>
			<point x="44" y="620.7568909594" type="curve" smooth="yes"/>
			<point x="6" y="731.7568909594"/>
			<point x="36" y="780.7568909594"/>
			<point x="140" y="780.7568909594" type="curve" smooth="yes"/>
			<point x="198" y="780.7568909594"/>
			<point x="239" y="737.7568909594"/>
		</contour>
		<contour>
			<point x="621" y="605.7568909594" type="curve" smooth="yes"/>
			<point x="494" y="469.7568909594"/>
			<point x="298" y="272.7568909594"/>
			<point x="211" y="119.7568909594" type="curve" smooth="yes"/>
			<point x="188" y="78.7568909594"/>
			<point x="169" y="62.7568909594"/>
			<point x="128" y="62.7568909594" type="curve" smooth="yes"/>
			<point x="65" y="62.7568909594"/>
			<point x="32" y="153.7568909594"/>
			<point x="101" y="262.7568909594" type="curve" smooth="yes"/>
			<point x="245" y="490.7568909594"/>
			<point x="396" y="654.7568909594"/>
			<point x="481" y="730.7568909594" type="curve" smooth="yes"/>
			<point x="515" y="762.7568909594"/>
			<point x="537" y="774.7568909594"/>
			<point x="571" y="774.7568909594" type="curve" smooth="yes"/>
			<point x="635" y="774.7568909594"/>
			<point x="688" y="675.7568909594"/>
		</contour>
	</outline>
</glyph>
<glyph name="Z" format="2">
	<unicode hex="005A"/>
	<advance width="681"/>
	<outline>
		<contour>
			<point x="81" y="823.8251178563" type="curve" smooth="yes"/>
			<point x="179" y="846.8251178563"/>
			<point x="276" y="856.8251178563"/>
			<point x="370" y="856.8251178563" type="curve" smooth="yes"/>
			<point x="580" y="856.8251178563"/>
			<point x="634" y="778.8251178563"/>
			<point x="634" y="695.8251178563" type="curve" smooth="yes"/>
			<point x="634" y="586.8251178563"/>
			<point x="606" y="549.8251178563"/>
			<point x="407" y="435.8251178563" type="curve" smooth="yes"/>
			<point x="239" y="338.8251178563"/>
			<point x="232" y="330.8251178563"/>
			<point x="211" y="282.8251178563" type="curve" smooth="yes"/>
			<point x="197" y="250.8251178563"/>
			<point x="143" y="330.8251178563"/>
			<point x="171" y="317.8251178563" type="curve" smooth="yes"/>
			<point x="195" y="306.8251178563"/>
			<point x="215" y="301.8251178563"/>
			<point x="255" y="301.8251178563" type="curve" smooth="yes"/>
			<point x="318" y="301.8251178563"/>
			<point x="398" y="320.8251178563"/>
			<point x="479" y="320.8251178563" type="curve" smooth="yes"/>
			<point x="572" y="320.8251178563"/>
			<point x="658" y="292.8251178563"/>
			<point x="658" y="199.8251178563" type="curve" smooth="yes"/>
			<point x="658" y="162.8251178563"/>
			<point x="633" y="139.8251178563"/>
			<point x="600" y="139.8251178563" type="curve" smooth="yes"/>
			<point x="557" y="139.8251178563"/>
			<point x="530" y="146.8251178563"/>
			<point x="463" y="146.8251178563" type="curve" smooth="yes"/>
			<point x="380" y="146.8251178563"/>
			<point x="302" y="135.8251178563"/>
			<point x="235" y="135.8251178563" type="curve" smooth="yes"/>
			<point x="93" y="135.8251178563"/>
			<point x="43" y="206.8251178563"/>
			<point x="43" y="279.8251178563" type="curve" smooth="yes"/>
			<point x="43" y="369.8251178563"/>
			<point x="68" y="429.8251178563"/>
			<point x="297" y="563.8251178563" type="curve" smooth="yes"/>
			<point x="443" y="650.8251178563"/>
			<point x="452" y="662.8251178563"/>
			<point x="463" y="690.8251178563" type="curve" smooth="yes"/>
			<point x="475" y="722.8251178563"/>
			<point x="512" y="646.8251178563"/>
			<point x="488" y="665.8251178563" type="curve" smooth="yes"/>
			<point x="472" y="677.8251178563"/>
			<point x="468" y="683.8251178563"/>
			<point x="417" y="683.8251178563" type="curve" smooth="yes"/>
			<point x="301" y="683.8251178563"/>
			<point x="219" y="657.8251178563"/>
			<point x="169" y="657.8251178563" type="curve" smooth="yes"/>
			<point x="110" y="657.8251178563"/>
			<point x="35" y="688.8251178563"/>
			<point x="35" y="759.8251178563" type="curve" smooth="yes"/>
			<point x="35" y="788.8251178563"/>
			<point x="49" y="815.8251178563"/>
		</contour>
	</outline>
</glyph>
<glyph name="bracketleft" format="2">
	<unicode hex="005B"/>
	<advance width="553"/>
	<image fileName="parenleft.png" xScale="2.5963710802" yScale="2.5963710802" xOffset="-3331.5138148068" yOffset="-605.3762351949" color="0,0,0,0.18426"/>
	<outline>
		<contour>
			<point x="432" y="551.2749358325"/>
			<point x="422" y="553.2749358325"/>
			<point x="409" y="553.2749358325" type="curve" smooth="yes"/>
			<point x="347" y="553.2749358325"/>
			<point x="240" y="527.2749358325"/>
			<point x="185" y="527.2749358325" type="curve"/>
			<point x="270" y="599.2749358325" type="line"/>
			<point x="248" y="482.2749358325"/>
			<point x="269" y="241.2749358325"/>
			<point x="263" y="146.2749358325" type="curve" smooth="yes"/>
			<point x="259" y="60.2749358325"/>
			<point x="224" y="-131.7250641675"/>
			<point x="284" y="-224.7250641675" type="curve"/>
			<point x="189" y="-197.7250641675" type="line"/>
			<point x="254" y="-185.7250641675"/>
			<point x="295" y="-180.7250641675"/>
			<point x="355" y="-180.7250641675" type="curve" smooth="yes"/>
			<point x="396" y="-180.7250641675"/>
			<point x="431" y="-177.7250641675"/>
			<point x="464" y="-177.7250641675" type="curve" smooth="yes"/>
			<point x="505" y="-177.7250641675"/>
			<point x="533" y="-204.7250641675"/>
			<point x="533" y="-244.7250641675" type="curve" smooth="yes"/>
			<point x="533" y="-309.7250641675"/>
			<point x="493" y="-348.7250641675"/>
			<point x="411" y="-348.7250641675" type="curve" smooth="yes"/>
			<point x="364" y="-348.7250641675"/>
			<point x="328" y="-349.7250641675"/>
			<point x="293" y="-353.7250641675" type="curve" smooth="yes"/>
			<point x="259" y="-356.7250641675"/>
			<point x="235" y="-361.7250641675"/>
			<point x="211" y="-361.7250641675" type="curve" smooth="yes"/>
			<point x="182" y="-361.7250641675"/>
			<point x="151" y="-345.7250641675"/>
			<point x="136" y="-320.7250641675" type="curve" smooth="yes"/>
			<point x="60" y="-201.7250641675"/>
			<point x="81" y="42.2749358325"/>
			<point x="87" y="156.2749358325" type="curve" smooth="yes"/>
			<point x="93" y="257.2749358325"/>
			<point x="74" y="508.2749358325"/>
			<point x="96" y="631.2749358325" type="curve" smooth="yes"/>
			<point x="104" y="673.2749358325"/>
			<point x="141" y="703.2749358325"/>
			<point x="184" y="703.2749358325" type="curve" smooth="yes"/>
			<point x="282" y="703.2749358325"/>
			<point x="375" y="727.2749358325"/>
			<point x="454" y="727.2749358325" type="curve" smooth="yes"/>
			<point x="506" y="727.2749358325"/>
			<point x="531" y="696.2749358325"/>
			<point x="531" y="658.2749358325" type="curve" smooth="yes"/>
			<point x="531" y="614.2749358325"/>
			<point x="505" y="551.2749358325"/>
			<point x="442" y="551.2749358325" type="curve" smooth="yes"/>
		</contour>
	</outline>
</glyph>
<glyph name="c" format="2">
	<unicode hex="0063"/>
	<advance width="552"/>
	<outline>
		<contour>
			<point x="494" y="333.5589184598" type="curve" smooth="yes"/>
			<point x="494" y="391.5589184598"/>
			<point x="477" y="413.5589184598"/>
			<point x="441" y="413.5589184598" type="curve" smooth="yes"/>
			<point x="387" y="413.5589184598"/>
			<point x="396" y="351.5589184598"/>
			<point x="287" y="351.5589184598" type="curve" smooth="yes"/>
			<point x="209" y="351.5589184598"/>
			<point x="198" y="374.5589184598"/>
			<point x="198" y="401.5589184598" type="curve" smooth="yes"/>
			<point x="198" y="469.5589184598"/>
			<point x="267" y="538.5589184598"/>
			<point x="361" y="538.5589184598" type="curve" smooth="yes"/>
			<point x="391" y="538.5589184598"/>
			<point x="392" y="509.5589184598"/>
			<point x="413" y="509.5589184598" type="curve" smooth="yes"/>
			<point x="459" y="509.5589184598"/>
			<point x="483" y="553.5589184598"/>
			<point x="483" y="609.5589184598" type="curve" smooth="yes"/>
			<point x="483" y="691.5589184598"/>
			<point x="427" y="710.5589184598"/>
			<point x="371" y="710.5589184598" type="curve" smooth="yes"/>
			<point x="185" y="710.5589184598"/>
			<point x="26" y="575.5589184598"/>
			<point x="26" y="405.5589184598" type="curve" smooth="yes"/>
			<point x="26" y="271.5589184598"/>
			<point x="119" y="176.5589184598"/>
			<point x="296" y="176.5589184598" type="curve" smooth="yes"/>
			<point x="411" y="176.5589184598"/>
			<point x="494" y="234.5589184598"/>
		</contour>
	</outline>
</glyph>
<glyph name="e" format="2">
	<unicode hex="0065"/>
	<advance width="617"/>
	<outline>
		<contour>
			<point x="267" y="19.2163477395" type="curve" smooth="yes"/>
			<point x="407" y="19.2163477395"/>
			<point x="526" y="67.2163477395"/>
			<point x="526" y="182.2163477395" type="curve" smooth="yes"/>
			<point x="526" y="297.2163477395"/>
			<point x="443" y="358.2163477395"/>
			<point x="323" y="358.2163477395" type="curve" smooth="yes"/>
			<point x="141" y="358.2163477395"/>
			<point x="25" y="190.2163477395"/>
			<point x="25" y="43.2163477395" type="curve" smooth="yes"/>
			<point x="25" y="-84.7836522605"/>
			<point x="105" y="-176.7836522605"/>
			<point x="289" y="-176.7836522605" type="curve" smooth="yes"/>
			<point x="463" y="-176.7836522605"/>
			<point x="573" y="-97.7836522605"/>
			<point x="573" y="-21.7836522605" type="curve" smooth="yes"/>
			<point x="573" y="14.2163477395"/>
			<point x="559" y="32.2163477395"/>
			<point x="530" y="32.2163477395" type="curve" smooth="yes"/>
			<point x="475" y="32.2163477395"/>
			<point x="432" y="-20.7836522605"/>
			<point x="272" y="-20.7836522605" type="curve" smooth="yes"/>
			<point x="213" y="-20.7836522605"/>
			<point x="194" y="-8.7836522605"/>
			<point x="194" y="20.2163477395" type="curve" smooth="yes"/>
			<point x="194" y="104.2163477395"/>
			<point x="258" y="188.2163477395"/>
			<point x="347" y="188.2163477395" type="curve" smooth="yes"/>
			<point x="361" y="188.2163477395"/>
			<point x="367" y="182.2163477395"/>
			<point x="367" y="171.2163477395" type="curve" smooth="yes"/>
			<point x="367" y="140.2163477395"/>
			<point x="296" y="114.2163477395"/>
			<point x="248" y="114.2163477395" type="curve" smooth="yes"/>
			<point x="216" y="114.2163477395"/>
			<point x="198" y="119.2163477395"/>
			<point x="184" y="119.2163477395" type="curve" smooth="yes"/>
			<point x="163" y="119.2163477395"/>
			<point x="154" y="109.2163477395"/>
			<point x="154" y="89.2163477395" type="curve" smooth="yes"/>
			<point x="154" y="52.2163477395"/>
			<point x="197" y="19.2163477395"/>
		</contour>
	</outline>
</glyph>
<glyph name="h" format="2">
	<unicode hex="0068"/>
	<advance width="693"/>
	<outline>
		<contour>
			<point x="593" y="92.2634731986" type="curve" smooth="yes"/>
			<point x="638" y="92.2634731986"/>
			<point x="672" y="118.2634731986"/>
			<point x="672" y="152.2634731986" type="curve" smooth="yes"/>
			<point x="672" y="168.2634731986"/>
			<point x="667" y="183.2634731986"/>
			<point x="660" y="197.2634731986" type="curve" smooth="yes"/>
			<point x="642" y="229.2634731986"/>
			<point x="607" y="261.2634731986"/>
			<point x="596" y="372.2634731986" type="curve" smooth="yes"/>
			<point x="581" y="538.2634731986"/>
			<point x="549" y="636.2634731986"/>
			<point x="429" y="636.2634731986" type="curve" smooth="yes"/>
			<point x="346" y="636.2634731986"/>
			<point x="265" y="559.2634731986"/>
			<point x="194" y="401.2634731986" type="curve"/>
			<point x="230" y="328.2634731986" type="line"/>
			<point x="230" y="551.2634731986"/>
			<point x="252" y="650.2634731986"/>
			<point x="252" y="731.2634731986" type="curve" smooth="yes"/>
			<point x="252" y="874.2634731986"/>
			<point x="188" y="914.2634731986"/>
			<point x="136" y="914.2634731986" type="curve" smooth="yes"/>
			<point x="82" y="914.2634731986"/>
			<point x="63" y="885.2634731986"/>
			<point x="63" y="855.2634731986" type="curve" smooth="yes"/>
			<point x="63" y="814.2634731986"/>
			<point x="78" y="786.2634731986"/>
			<point x="78" y="709.2634731986" type="curve" smooth="yes"/>
			<point x="78" y="593.2634731986"/>
			<point x="55" y="450.2634731986"/>
			<point x="55" y="239.2634731986" type="curve" smooth="yes"/>
			<point x="55" y="164.2634731986"/>
			<point x="103" y="94.2634731986"/>
			<point x="163" y="94.2634731986" type="curve" smooth="yes"/>
			<point x="192" y="94.2634731986"/>
			<point x="213" y="105.2634731986"/>
			<point x="232" y="146.2634731986" type="curve" smooth="yes"/>
			<point x="308" y="314.2634731986"/>
			<point x="379" y="412.2634731986"/>
			<point x="416" y="425.2634731986" type="curve"/>
			<point x="423" y="393.2634731986"/>
			<point x="428" y="355.2634731986"/>
			<point x="434" y="253.2634731986" type="curve" smooth="yes"/>
			<point x="440" y="165.2634731986"/>
			<point x="495" y="92.2634731986"/>
		</contour>
	</outline>
</glyph>
<glyph name="j" format="2">
	<unicode hex="006A"/>
	<advance width="345"/>
	<outline>
		<contour>
			<point x="217" y="664.7893038858" type="curve" smooth="yes"/>
			<point x="253" y="475.7893038858"/>
			<point x="273" y="309.7893038858"/>
			<point x="273" y="158.7893038858" type="curve" smooth="yes"/>
			<point x="273" y="13.7893038858"/>
			<point x="190" y="-61.2106961142"/>
			<point x="64" y="-61.2106961142" type="curve" smooth="yes"/>
			<point x="-34" y="-61.2106961142"/>
			<point x="-90" y="-1.2106961142"/>
			<point x="-90" y="71.7893038858" type="curve" smooth="yes"/>
			<point x="-90" y="110.7893038858"/>
			<point x="-70" y="132.7893038858"/>
			<point x="-41" y="132.7893038858" type="curve" smooth="yes"/>
			<point x="-6" y="132.7893038858"/>
			<point x="12" y="110.7893038858"/>
			<point x="55" y="110.7893038858" type="curve" smooth="yes"/>
			<point x="86" y="110.7893038858"/>
			<point x="103" y="135.7893038858"/>
			<point x="103" y="172.7893038858" type="curve" smooth="yes"/>
			<point x="103" y="382.7893038858"/>
			<point x="50" y="464.7893038858"/>
			<point x="50" y="600.7893038858" type="curve" smooth="yes"/>
			<point x="50" y="688.7893038858"/>
			<point x="96" y="722.7893038858"/>
			<point x="143" y="722.7893038858" type="curve" smooth="yes"/>
			<point x="183" y="722.7893038858"/>
			<point x="207" y="711.7893038858"/>
		</contour>
		<contour>
			<point x="158" y="797.7893038858" type="curve" smooth="yes"/>
			<point x="216" y="797.7893038858"/>
			<point x="238" y="847.7893038858"/>
			<point x="238" y="893.7893038858" type="curve" smooth="yes"/>
			<point x="238" y="947.7893038858"/>
			<point x="204" y="1015.7893038858"/>
			<point x="143" y="1015.7893038858" type="curve" smooth="yes"/>
			<point x="84" y="1015.7893038858"/>
			<point x="37" y="967.7893038858"/>
			<point x="37" y="900.7893038858" type="curve" smooth="yes"/>
			<point x="37" y="847.7893038858"/>
			<point x="91" y="797.7893038858"/>
		</contour>
	</outline>
</glyph>
<glyph name="k" format="2">
	<unicode hex="006B"/>
	<advance width="678"/>
	<outline>
		<contour>
			<point x="555" y="126.6046526187" type="curve" smooth="yes"/>
			<point x="602" y="126.6046526187"/>
			<point x="627" y="154.6046526187"/>
			<point x="627" y="198.6046526187" type="curve" smooth="yes"/>
			<point x="627" y="247.6046526187"/>
			<point x="601" y="299.6046526187"/>
			<point x="533" y="313.6046526187" type="curve" smooth="yes"/>
			<point x="405" y="344.6046526187"/>
			<point x="363" y="366.6046526187"/>
			<point x="363" y="382.6046526187" type="curve" smooth="yes"/>
			<point x="363" y="403.6046526187"/>
			<point x="433" y="455.6046526187"/>
			<point x="545" y="488.6046526187" type="curve" smooth="yes"/>
			<point x="612" y="508.6046526187"/>
			<point x="629" y="529.6046526187"/>
			<point x="629" y="565.6046526187" type="curve" smooth="yes"/>
			<point x="629" y="626.6046526187"/>
			<point x="591" y="660.6046526187"/>
			<point x="533" y="660.6046526187" type="curve" smooth="yes"/>
			<point x="422" y="660.6046526187"/>
			<point x="172" y="509.6046526187"/>
			<point x="172" y="362.6046526187" type="curve" smooth="yes"/>
			<point x="172" y="271.6046526187"/>
			<point x="414" y="126.6046526187"/>
		</contour>
		<contour>
			<point x="139" y="943.6046526187" type="curve" smooth="yes"/>
			<point x="94" y="943.6046526187"/>
			<point x="73" y="919.6046526187"/>
			<point x="73" y="874.6046526187" type="curve" smooth="yes"/>
			<point x="73" y="838.6046526187"/>
			<point x="82" y="807.6046526187"/>
			<point x="82" y="727.6046526187" type="curve" smooth="yes"/>
			<point x="82" y="538.6046526187"/>
			<point x="55" y="356.6046526187"/>
			<point x="55" y="270.6046526187" type="curve" smooth="yes"/>
			<point x="55" y="152.6046526187"/>
			<point x="110" y="123.6046526187"/>
			<point x="164" y="123.6046526187" type="curve" smooth="yes"/>
			<point x="206" y="123.6046526187"/>
			<point x="229" y="142.6046526187"/>
			<point x="229" y="186.6046526187" type="curve" smooth="yes"/>
			<point x="229" y="235.6046526187"/>
			<point x="224" y="278.6046526187"/>
			<point x="224" y="342.6046526187" type="curve" smooth="yes"/>
			<point x="224" y="458.6046526187"/>
			<point x="261" y="585.6046526187"/>
			<point x="261" y="729.6046526187" type="curve" smooth="yes"/>
			<point x="261" y="885.6046526187"/>
			<point x="221" y="943.6046526187"/>
		</contour>
	</outline>
</glyph>
<glyph name="p" format="2">
	<unicode hex="0070"/>
	<advance width="610"/>
	<outline>
		<contour>
			<point x="211" y="186.7152398562" type="curve" smooth="yes"/>
			<point x="211" y="35.7152398562"/>
			<point x="257" y="-79.2847601438"/>
			<point x="257" y="-217.2847601438" type="curve" smooth="yes"/>
			<point x="257" y="-315.2847601438"/>
			<point x="250" y="-432.2847601438"/>
			<point x="157" y="-432.2847601438" type="curve" smooth="yes"/>
			<point x="114" y="-432.2847601438"/>
			<point x="63" y="-397.2847601438"/>
			<point x="63" y="-322.2847601438" type="curve" smooth="yes"/>
			<point x="63" y="-259.2847601438"/>
			<point x="75" y="-235.2847601438"/>
			<point x="75" y="-169.2847601438" type="curve" smooth="yes"/>
			<point x="75" y="-18.2847601438"/>
			<point x="36" y="94.7152398562"/>
			<point x="25" y="234.7152398562" type="curve" smooth="yes"/>
			<point x="23" y="263.7152398562"/>
			<point x="46" y="284.7152398562"/>
			<point x="80" y="284.7152398562" type="curve" smooth="yes"/>
			<point x="145" y="284.7152398562"/>
			<point x="211" y="239.7152398562"/>
		</contour>
		<contour>
			<point x="233" y="356.7152398562" type="curve" smooth="yes"/>
			<point x="422" y="356.7152398562"/>
			<point x="584" y="239.7152398562"/>
			<point x="584" y="28.7152398562" type="curve" smooth="yes"/>
			<point x="584" y="-68.2847601438"/>
			<point x="494" y="-181.2847601438"/>
			<point x="342" y="-181.2847601438" type="curve" smooth="yes"/>
			<point x="219" y="-181.2847601438"/>
			<point x="126" y="-102.2847601438"/>
			<point x="126" y="-10.2847601438" type="curve" smooth="yes"/>
			<point x="126" y="14.7152398562"/>
			<point x="150" y="40.7152398562"/>
			<point x="174" y="40.7152398562" type="curve" smooth="yes"/>
			<point x="219" y="40.7152398562"/>
			<point x="250" y="-12.2847601438"/>
			<point x="313" y="-12.2847601438" type="curve" smooth="yes"/>
			<point x="366" y="-12.2847601438"/>
			<point x="402" y="6.7152398562"/>
			<point x="402" y="55.7152398562" type="curve" smooth="yes"/>
			<point x="402" y="138.7152398562"/>
			<point x="298" y="181.7152398562"/>
			<point x="226" y="181.7152398562" type="curve" smooth="yes"/>
			<point x="213" y="181.7152398562"/>
			<point x="205" y="176.7152398562"/>
			<point x="178" y="176.7152398562" type="curve" smooth="yes"/>
			<point x="133" y="176.7152398562"/>
			<point x="84" y="216.7152398562"/>
			<point x="84" y="265.7152398562" type="curve" smooth="yes"/>
			<point x="84" y="337.7152398562"/>
			<point x="135" y="356.7152398562"/>
		</contour>
	</outline>
</glyph>
<glyph name="q" format="2">
	<unicode hex="0071"/>
	<advance width="618"/>
	<outline>
		<contour>
			<point x="423" y="168.5924988121" type="curve" smooth="yes"/>
			<point x="466" y="168.5924988121"/>
			<point x="500" y="201.5924988121"/>
			<point x="500" y="238.5924988121" type="curve" smooth="yes"/>
			<point x="500" y="316.5924988121"/>
			<point x="437" y="388.5924988121"/>
			<point x="339" y="388.5924988121" type="curve" smooth="yes"/>
			<point x="179" y="388.5924988121"/>
			<point x="15" y="223.5924988121"/>
			<point x="15" y="71.5924988121" type="curve" smooth="yes"/>
			<point x="15" y="-59.4075011879"/>
			<point x="88" y="-146.4075011879"/>
			<point x="235" y="-146.4075011879" type="curve" smooth="yes"/>
			<point x="319" y="-146.4075011879"/>
			<point x="373" y="-123.4075011879"/>
			<point x="437" y="-79.4075011879" type="curve" smooth="yes"/>
			<point x="510" y="-29.4075011879"/>
			<point x="408" y="-18.4075011879"/>
			<point x="406" y="-65.4075011879" type="curve" smooth="yes"/>
			<point x="402" y="-152.4075011879"/>
			<point x="405" y="-235.4075011879"/>
			<point x="411" y="-304.4075011879" type="curve" smooth="yes"/>
			<point x="414" y="-338.4075011879"/>
			<point x="451" y="-396.4075011879"/>
			<point x="505" y="-396.4075011879" type="curve" smooth="yes"/>
			<point x="550" y="-396.4075011879"/>
			<point x="597" y="-370.4075011879"/>
			<point x="640" y="-332.4075011879" type="curve" smooth="yes"/>
			<point x="652" y="-321.4075011879"/>
			<point x="660" y="-305.4075011879"/>
			<point x="660" y="-287.4075011879" type="curve" smooth="yes"/>
			<point x="660" y="-216.4075011879"/>
			<point x="638" y="-157.4075011879"/>
			<point x="609" y="-157.4075011879" type="curve" smooth="yes"/>
			<point x="591" y="-157.4075011879"/>
			<point x="578" y="-171.4075011879"/>
			<point x="557" y="-183.4075011879" type="curve" smooth="yes"/>
			<point x="529" y="-199.4075011879"/>
			<point x="581" y="-241.4075011879"/>
			<point x="578" y="-195.4075011879" type="curve" smooth="yes"/>
			<point x="572" y="-94.4075011879"/>
			<point x="571" y="-42.4075011879"/>
			<point x="572" y="14.5924988121" type="curve"/>
			<point x="577" y="34.5924988121"/>
			<point x="602" y="81.5924988121"/>
			<point x="602" y="147.5924988121" type="curve" smooth="yes"/>
			<point x="602" y="195.5924988121"/>
			<point x="561" y="231.5924988121"/>
			<point x="494" y="231.5924988121" type="curve" smooth="yes"/>
			<point x="472" y="231.5924988121"/>
			<point x="460" y="219.5924988121"/>
			<point x="454" y="200.5924988121" type="curve" smooth="yes"/>
			<point x="417" y="95.5924988121"/>
			<point x="336" y="23.5924988121"/>
			<point x="235" y="23.5924988121" type="curve" smooth="yes"/>
			<point x="208" y="23.5924988121"/>
			<point x="192" y="37.5924988121"/>
			<point x="192" y="62.5924988121" type="curve" smooth="yes"/>
			<point x="192" y="122.5924988121"/>
			<point x="285" y="217.5924988121"/>
			<point x="339" y="217.5924988121" type="curve" smooth="yes"/>
			<point x="362" y="217.5924988121"/>
			<point x="373" y="211.5924988121"/>
			<point x="382" y="196.5924988121" type="curve" smooth="yes"/>
			<point x="394" y="175.5924988121"/>
			<point x="408" y="168.5924988121"/>
		</contour>
	</outline>
</glyph>
<glyph name="r" format="2">
	<unicode hex="0072"/>
	<advance width="528"/>
	<outline>
		<contour>
			<point x="183" y="187.6734195138" type="curve" smooth="yes"/>
			<point x="229" y="187.6734195138"/>
			<point x="240" y="211.6734195138"/>
			<point x="255" y="295.6734195138" type="curve" smooth="yes"/>
			<point x="273" y="401.6734195138"/>
			<point x="313" y="464.6734195138"/>
			<point x="478" y="531.6734195138" type="curve" smooth="yes"/>
			<point x="524" y="550.6734195138"/>
			<point x="532" y="579.6734195138"/>
			<point x="532" y="609.6734195138" type="curve" smooth="yes"/>
			<point x="532" y="676.6734195138"/>
			<point x="515" y="720.6734195138"/>
			<point x="465" y="720.6734195138" type="curve" smooth="yes"/>
			<point x="360" y="720.6734195138"/>
			<point x="233" y="617.6734195138"/>
			<point x="174" y="464.6734195138" type="curve"/>
			<point x="245" y="502.6734195138" type="line"/>
			<point x="218" y="660.6734195138"/>
			<point x="177" y="710.6734195138"/>
			<point x="78" y="710.6734195138" type="curve" smooth="yes"/>
			<point x="46" y="710.6734195138"/>
			<point x="21" y="693.6734195138"/>
			<point x="21" y="667.6734195138" type="curve" smooth="yes"/>
			<point x="21" y="648.6734195138"/>
			<point x="24" y="636.6734195138"/>
			<point x="40" y="602.6734195138" type="curve" smooth="yes"/>
			<point x="71" y="535.6734195138"/>
			<point x="81" y="453.6734195138"/>
			<point x="81" y="314.6734195138" type="curve" smooth="yes"/>
			<point x="81" y="244.6734195138"/>
			<point x="131" y="187.6734195138"/>
		</contour>
	</outline>
</glyph>
<glyph name="u" format="2">
	<unicode hex="0075"/>
	<advance width="639"/>
	<outline>
		<contour>
			<point x="333" y="-148.0779097323" type="curve" smooth="yes"/>
			<point x="474" y="-148.0779097323"/>
			<point x="585" y="-20.0327969503"/>
			<point x="585" y="244.9220902677" type="curve" smooth="yes"/>
			<point x="585" y="334.9220902677"/>
			<point x="547" y="378.9220902677"/>
			<point x="482" y="378.9220902677" type="curve" smooth="yes"/>
			<point x="428" y="378.9220902677"/>
			<point x="413" y="349.9220902677"/>
			<point x="413" y="300.9220902677" type="curve" smooth="yes"/>
			<point x="413" y="268.9220902677"/>
			<point x="417" y="243.9220902677"/>
			<point x="417" y="203.9220902677" type="curve" smooth="yes"/>
			<point x="417" y="117.8401230546"/>
			<point x="384" y="26.9220902677"/>
			<point x="321" y="26.9220902677" type="curve" smooth="yes"/>
			<point x="271" y="26.9220902677"/>
			<point x="208" y="106.7701915335"/>
			<point x="208" y="178.9220902677" type="curve" smooth="yes"/>
			<point x="208" y="211.9220902677"/>
			<point x="230" y="247.9220902677"/>
			<point x="230" y="272.9220902677" type="curve" smooth="yes"/>
			<point x="230" y="329.7959641416"/>
			<point x="177" y="379.9220902677"/>
			<point x="121" y="379.9220902677" type="curve" smooth="yes"/>
			<point x="95" y="379.9220902677"/>
			<point x="75" y="362.9220902677"/>
			<point x="67" y="340.9220902677" type="curve" smooth="yes"/>
			<point x="45.4562248666" y="287.0626524341"/>
			<point x="35" y="237.4763071352"/>
			<point x="35" y="178.9220902677" type="curve" smooth="yes"/>
			<point x="35" y="42.4265947722"/>
			<point x="152" y="-148.0779097323"/>
		</contour>
	</outline>
</glyph>
<glyph name="v" format="2">
	<unicode hex="0076"/>
	<advance width="641"/>
	<outline>
		<contour>
			<point x="199" y="163.7219845159" type="curve" smooth="yes"/>
			<point x="234" y="109.7219845159"/>
			<point x="268" y="86.7219845159"/>
			<point x="319" y="86.7219845159" type="curve" smooth="yes"/>
			<point x="350" y="86.7219845159"/>
			<point x="365" y="99.7219845159"/>
			<point x="380" y="135.7219845159" type="curve" smooth="yes"/>
			<point x="444" y="285.7219845159"/>
			<point x="519" y="337.7219845159"/>
			<point x="601" y="465.7219845159" type="curve" smooth="yes"/>
			<point x="608" y="476.7219845159"/>
			<point x="613" y="492.7219845159"/>
			<point x="613" y="508.7219845159" type="curve" smooth="yes"/>
			<point x="613" y="563.7219845159"/>
			<point x="565" y="622.7219845159"/>
			<point x="528" y="622.7219845159" type="curve" smooth="yes"/>
			<point x="501" y="622.7219845159"/>
			<point x="487" y="618.7219845159"/>
			<point x="468" y="594.7219845159" type="curve" smooth="yes"/>
			<point x="393" y="499.7219845159"/>
			<point x="324" y="420.7219845159"/>
			<point x="271" y="296.7219845159" type="curve"/>
			<point x="320" y="286.7219845159" type="line"/>
			<point x="293" y="352.7219845159"/>
			<point x="265" y="423.7219845159"/>
			<point x="242" y="488.7219845159" type="curve" smooth="yes"/>
			<point x="216" y="559.7219845159"/>
			<point x="165" y="620.7219845159"/>
			<point x="76" y="620.7219845159" type="curve" smooth="yes"/>
			<point x="41" y="620.7219845159"/>
			<point x="23" y="598.7219845159"/>
			<point x="23" y="570.7219845159" type="curve" smooth="yes"/>
			<point x="23" y="507.7219845159"/>
			<point x="63" y="470.7219845159"/>
			<point x="111" y="348.7219845159" type="curve" smooth="yes"/>
			<point x="133" y="293.7219845159"/>
			<point x="172" y="204.7219845159"/>
		</contour>
	</outline>
</glyph>
<glyph name="endash" format="2">
	<unicode hex="2013"/>
	<advance width="700"/>
	<outline>
		<contour>
			<point x="206" y="63.7122515408" type="curve" smooth="yes"/>
			<point x="262.7638888889" y="63.7122515408"/>
			<point x="355.0172413793" y="73.7122515408"/>
			<point x="608" y="73.7122515408" type="curve" smooth="yes"/>
			<point x="639" y="73.7122515408"/>
			<point x="657" y="94.7122515408"/>
			<point x="657" y="127.7122515408" type="curve" smooth="yes"/>
			<point x="657" y="167.9599579628"/>
			<point x="614" y="234.7122515408"/>
			<point x="495" y="234.7122515408" type="curve" smooth="yes"/>
			<point x="355" y="234.7122515408"/>
			<point x="220.8176325226" y="229.6881891653"/>
			<point x="77" y="210.7122515408" type="curve" smooth="yes"/>
			<point x="46.2890288795" y="206.4762555242"/>
			<point x="41" y="187.2122515408"/>
			<point x="41" y="163.7122515408" type="curve" smooth="yes"/>
			<point x="41" y="115.1685622204"/>
			<point x="99.7116564417" y="63.7122515408"/>
		</contour>
	</outline>
</glyph>
<glyph name="quotedblright" format="2">
	<unicode hex="201D"/>
	<advance width="511"/>
	<outline>
		<contour>
			<point x="168" y="904.7960576415" type="curve" smooth="yes"/>
			<point x="134" y="904.7960576415"/>
			<point x="115" y="890.7960576415"/>
			<point x="99" y="854.7960576415" type="curve" smooth="yes"/>
			<point x="67" y="785.7960576415"/>
			<point x="39" y="692.7960576415"/>
			<point x="39" y="624.7960576415" type="curve" smooth="yes"/>
			<point x="39" y="562.7960576415"/>
			<point x="66" y="506.7960576415"/>
			<point x="110" y="506.7960576415" type="curve" smooth="yes"/>
			<point x="149" y="506.7960576415"/>
			<point x="170" y="535.7960576415"/>
			<point x="190" y="576.7960576415" type="curve" smooth="yes"/>
			<point x="211" y="621.7960576415"/>
			<point x="237" y="662.7960576415"/>
			<point x="263" y="734.7960576415" type="curve" smooth="yes"/>
			<point x="274" y="764.7960576415"/>
			<point x="279" y="785.7960576415"/>
			<point x="279" y="808.7960576415" type="curve" smooth="yes"/>
			<point x="279" y="853.7960576415"/>
			<point x="220" y="904.7960576415"/>
		</contour>
		<contour>
			<point x="408" y="804.7960576415" type="curve" smooth="yes"/>
			<point x="374" y="804.7960576415"/>
			<point x="355" y="790.7960576415"/>
			<point x="339" y="754.7960576415" type="curve" smooth="yes"/>
			<point x="315" y="701.7960576415"/>
			<point x="299" y="627.7960576415"/>
			<point x="299" y="574.7960576415" type="curve" smooth="yes"/>
			<point x="299" y="517.7960576415"/>
			<point x="332" y="466.7960576415"/>
			<point x="387" y="466.7960576415" type="curve" smooth="yes"/>
			<point x="418" y="466.7960576415"/>
			<point x="436" y="490.7960576415"/>
			<point x="450" y="526.7960576415" type="curve" smooth="yes"/>
			<point x="461" y="558.7960576415"/>
			<point x="473" y="595.7960576415"/>
			<point x="499" y="639.7960576415" type="curve" smooth="yes"/>
			<point x="514" y="664.7960576415"/>
			<point x="519" y="685.7960576415"/>
			<point x="519" y="708.7960576415" type="curve" smooth="yes"/>
			<point x="519" y="753.7960576415"/>
			<point x="460" y="804.7960576415"/>
		</contour>
	</outline>
</glyph>
<glyph name="daggerdbl" format="2">
	<unicode hex="2021"/>
	<advance width="619"/>
	<outline>
		<contour>
			<point x="412" y="503.2320002175" type="curve" smooth="yes"/>
			<point x="412" y="400.2320002175"/>
			<point x="387" y="282.2320002175"/>
			<point x="387" y="140.2320002175" type="curve" smooth="yes"/>
			<point x="387" y="-96.7679997825"/>
			<point x="413" y="-162.7679997825"/>
			<point x="413" y="-254.7679997825" type="curve" smooth="yes"/>
			<point x="413" y="-312.7679997825"/>
			<point x="384" y="-340.7679997825"/>
			<point x="338" y="-340.7679997825" type="curve" smooth="yes"/>
			<point x="294" y="-340.7679997825"/>
			<point x="264" y="-311.7679997825"/>
			<point x="252" y="-248.7679997825" type="curve" smooth="yes"/>
			<point x="226" y="-112.7679997825"/>
			<point x="220" y="-24.7679997825"/>
			<point x="220" y="117.2320002175" type="curve" smooth="yes"/>
			<point x="220" y="307.2320002175"/>
			<point x="250" y="408.2320002175"/>
			<point x="245" y="566.2320002175" type="curve" smooth="yes"/>
			<point x="243" y="611.2320002175"/>
			<point x="258" y="641.2320002175"/>
			<point x="307" y="641.2320002175" type="curve" smooth="yes"/>
			<point x="372" y="641.2320002175"/>
			<point x="412" y="601.2320002175"/>
		</contour>
		<contour>
			<point x="232" y="297.2320002175"/>
			<point x="164" y="247.2320002175"/>
			<point x="92" y="247.2320002175" type="curve" smooth="yes"/>
			<point x="42" y="247.2320002175"/>
			<point x="15" y="286.2320002175"/>
			<point x="15" y="333.2320002175" type="curve" smooth="yes"/>
			<point x="15" y="373.2320002175"/>
			<point x="28" y="403.2320002175"/>
			<point x="101" y="416.2320002175" type="curve" smooth="yes"/>
			<point x="224" y="438.2320002175"/>
			<point x="361" y="448.2320002175"/>
			<point x="479" y="448.2320002175" type="curve" smooth="yes"/>
			<point x="558" y="448.2320002175"/>
			<point x="604" y="412.2320002175"/>
			<point x="604" y="355.2320002175" type="curve" smooth="yes"/>
			<point x="604" y="321.2320002175"/>
			<point x="589" y="297.2320002175"/>
			<point x="535" y="297.2320002175" type="curve" smooth="yes"/>
		</contour>
		<contour>
			<point x="238" y="-52.7679997825"/>
			<point x="160" y="-90.7679997825"/>
			<point x="92" y="-90.7679997825" type="curve" smooth="yes"/>
			<point x="42" y="-90.7679997825"/>
			<point x="15" y="-51.7679997825"/>
			<point x="15" y="-4.7679997825" type="curve" smooth="yes"/>
			<point x="15" y="35.2320002175"/>
			<point x="31" y="65.2320002175"/>
			<point x="107" y="76.2320002175" type="curve" smooth="yes"/>
			<point x="235" y="94.2320002175"/>
			<point x="361" y="98.2320002175"/>
			<point x="479" y="98.2320002175" type="curve" smooth="yes"/>
			<point x="558" y="98.2320002175"/>
			<point x="604" y="62.2320002175"/>
			<point x="604" y="5.2320002175" type="curve" smooth="yes"/>
			<point x="604" y="-28.7679997825"/>
			<point x="589" y="-52.7679997825"/>
			<point x="535" y="-52.7679997825" type="curve" smooth="yes"/>
		</contour>
	</outline>
</glyph>
